<svg enable-background="new 0 0 24 24" viewBox="0 0 24 24"
    xmlns="http://www.w3.org/2000/svg">
    <path d="m12 2c-3.3 0-6 2.7-6 6 0 5.2 6 11.1 6 11.1s6-6 6-11.1c0-3.3-2.7-6-6-6zm0 3.9c1.1 0 2.1 1 2.1 2.1 0 1.2-.9 2.1-2.1 2.1s-2.1-1-2.1-2.1c0-1.2 1-2.1 2.1-2.1zm-5.2 9.2c-1.3.3-2.3.6-3.2 1-.4.2-.8.5-1.1.8s-.5.9-.5 1.4c0 .8.5 1.4 1.1 1.8s1.3.7 2.2 1c1.8.6 4.1.9 6.7.9s4.9-.3 6.7-.8c.9-.3 1.6-.6 2.2-1s1.1-1 1.1-1.8c0-1-.8-1.7-1.6-2.2s-1.9-.8-3.2-1l-.3 2c1.1.2 2 .5 2.6.8.4.2.5.4.6.4 0 0-.1.1-.2.2-.3.2-.9.5-1.6.7-1.7.4-3.9.7-6.3.7s-4.6-.3-6.1-.8c-.7-.2-1.3-.5-1.6-.7-.1-.1-.2-.2-.2-.2.1-.1.2-.2.5-.4.6-.3 1.5-.6 2.7-.8z" fill="#9b9b9a"/>
    <path d="m0 0h24v24h-24z" fill="none"/>
</svg>